# xmcd
#
# Track frame offsets: 
#        150
#        1948
#        13340
#        34280
#        54052
#        72906
#        85154
#        108905
#        124550
#        150443
#        169136
#        196957
#        207690
#        227071
#        243528
#        254288
#        266917
#        281461
#        308613
#        328195
#        350128
#
# Disc length: 4818 seconds
#
# Revision: 3
# Processed by: cddbd v1.5.2PL0 Copyright (c) Steve Scherf et al.
# Submitted via: ExactAudioCopy v1.0b1
#
DISCID=2a12d015
DTITLE=ZZ Top - The Best Blues and Ballads
DYEAR=2001
DGENRE=Blues Rock
TTITLE0=Intro By Ross Mitchell
TTITLE1=36-22-36
TTITLE2=Blue Jean Blues
TTITLE3=2000 Blues
TTITLE4=A Food You Stocking
TTITLE5=Apologies To Pearly
TTITLE6=Brown Sugar
TTITLE7=Old Man
TTITLE8=Cover Your Rig
TTITLE9=Just Got Back From Baby's
TTITLE10=I Need Your Tonight
TTITLE11=She Loves My Automobiles
TTITLE12=My Head's In Mississippi
TTITLE13=La Grange
TTITLE14=Hi Fi Mama
TTITLE15=Lowdown In The Street
TTITLE16=Hot Blue And Rightehous
TTITLE17=Vincent Price Blues
TTITLE18=(Let Me Be Your) Teddy Bear
TTITLE19=Breakaway
TTITLE20=Heaven, Hell Or Houston
EXTD=
EXTT0=
EXTT1=
EXTT2=
EXTT3=
EXTT4=
EXTT5=
EXTT6=
EXTT7=
EXTT8=
EXTT9=
EXTT10=
EXTT11=
EXTT12=
EXTT13=
EXTT14=
EXTT15=
EXTT16=
EXTT17=
EXTT18=
EXTT19=
EXTT20=
PLAYORDER=
